<svg width="512" height="246" viewBox="0 0 512 246" fill="none" xmlns="http://www.w3.org/2000/svg">
<path d="M508.354 155.147C508.158 154.951 507.842 154.951 507.646 155.147L504.464 158.329C504.269 158.524 504.269 158.84 504.464 159.036C504.66 159.231 504.976 159.231 505.172 159.036L508 156.207L510.828 159.036C511.024 159.231 511.34 159.231 511.536 159.036C511.731 158.84 511.731 158.524 511.536 158.329L508.354 155.147ZM206.238 235.127L206.537 234.727L206.238 235.127ZM222.777 92.5114L223.108 92.1361L222.777 92.5114ZM121.05 226.509L121.119 226.014L121.05 226.509ZM322.015 124.6V125.1V124.6ZM507.5 155.5C507.5 156.75 507.489 157.976 507.469 159.177L508.468 159.195C508.489 157.987 508.5 156.756 508.5 155.5H507.5ZM507.22 166.098C507.083 168.564 506.895 170.912 506.66 173.147L507.654 173.252C507.892 170.999 508.08 168.635 508.219 166.154L507.22 166.098ZM505.738 179.951C505.33 182.374 504.853 184.636 504.312 186.743L505.28 186.992C505.829 184.855 506.312 182.565 506.724 180.117L505.738 179.951ZM502.194 193.408C501.291 195.727 500.284 197.789 499.179 199.613L500.035 200.131C501.172 198.252 502.205 196.137 503.126 193.771L502.194 193.408ZM494.988 204.988C493.284 206.664 491.43 207.973 489.44 208.953L489.881 209.85C491.969 208.822 493.911 207.45 495.689 205.702L494.988 204.988ZM482.934 210.956C480.757 211.286 478.459 211.341 476.051 211.147L475.971 212.143C478.444 212.343 480.82 212.288 483.083 211.945L482.934 210.956ZM469.196 210.011C467.037 209.489 464.813 208.811 462.531 207.994L462.194 208.935C464.505 209.763 466.763 210.451 468.961 210.983L469.196 210.011ZM456.076 205.389C454.02 204.472 451.926 203.464 449.8 202.373L449.344 203.262C451.484 204.361 453.594 205.378 455.669 206.302L456.076 205.389ZM443.666 199.054C441.678 197.927 439.669 196.741 437.64 195.503L437.119 196.357C439.156 197.599 441.175 198.791 443.172 199.924L443.666 199.054ZM431.702 191.772C429.76 190.519 427.805 189.228 425.839 187.904L425.28 188.733C427.251 190.06 429.212 191.356 431.16 192.613L431.702 191.772ZM420.074 183.955C418.172 182.631 416.263 181.284 414.351 179.92L413.77 180.734C415.685 182.1 417.597 183.449 419.503 184.775L420.074 183.955ZM408.658 175.82C406.771 174.449 404.884 173.068 402.998 171.681L402.405 172.487C404.293 173.875 406.182 175.257 408.07 176.629L408.658 175.82ZM397.357 167.518C395.473 166.123 393.593 164.729 391.719 163.34L391.123 164.143C392.997 165.532 394.878 166.927 396.763 168.322L397.357 167.518ZM386.084 159.171C384.191 157.774 382.308 156.389 380.437 155.022L379.847 155.83C381.717 157.195 383.599 158.579 385.491 159.976L386.084 159.171ZM374.74 150.894C372.813 149.51 370.901 148.152 369.01 146.828L368.436 147.647C370.324 148.968 372.232 150.324 374.157 151.706L374.74 150.894ZM363.234 142.853C361.261 141.52 359.313 140.233 357.395 139.002L356.855 139.843C358.765 141.07 360.706 142.352 362.675 143.681L363.234 142.853ZM351.425 135.293C349.338 134.046 347.294 132.879 345.299 131.805L344.825 132.686C346.805 133.751 348.836 134.91 350.912 136.152L351.425 135.293ZM338.997 128.663C336.741 127.637 334.561 126.763 332.468 126.063L332.15 127.011C334.205 127.698 336.352 128.559 338.583 129.573L338.997 128.663ZM325.521 124.359C324.313 124.189 323.144 124.1 322.015 124.1V125.1C323.091 125.1 324.214 125.185 325.381 125.349L325.521 124.359ZM322.015 124.1C320.745 124.1 319.505 124.146 318.291 124.237L318.366 125.234C319.554 125.145 320.77 125.1 322.015 125.1V124.1ZM311.077 125.364C308.648 125.955 306.345 126.745 304.16 127.713L304.565 128.627C306.696 127.683 308.943 126.913 311.314 126.336L311.077 125.364ZM297.758 131.26C295.741 132.619 293.84 134.146 292.042 135.819L292.723 136.551C294.485 134.911 296.346 133.417 298.317 132.089L297.758 131.26ZM287.043 141.141C285.513 142.988 284.068 144.948 282.697 147.003L283.529 147.558C284.883 145.529 286.308 143.596 287.813 141.778L287.043 141.141ZM278.908 153.233C277.741 155.328 276.632 157.492 275.572 159.709L276.474 160.14C277.527 157.94 278.626 155.795 279.781 153.72L278.908 153.233ZM272.596 166.348C271.662 168.564 270.765 170.817 269.899 173.091L270.834 173.447C271.696 171.182 272.589 168.941 273.518 166.736L272.596 166.348ZM267.405 179.91C266.6 182.194 265.818 184.487 265.051 186.775L265.999 187.093C266.765 184.808 267.545 182.52 268.348 180.242L267.405 179.91ZM262.776 193.665C262.017 195.987 261.267 198.288 260.519 200.558L261.469 200.871C262.217 198.6 262.968 196.296 263.727 193.976L262.776 193.665ZM258.213 207.43C257.41 209.764 256.602 212.042 255.778 214.249L256.715 214.599C257.543 212.382 258.354 210.095 259.158 207.755L258.213 207.43ZM253.115 220.959C252.138 223.255 251.131 225.435 250.08 227.475L250.968 227.933C252.033 225.867 253.051 223.664 254.035 221.35L253.115 220.959ZM246.415 233.694C244.988 235.779 243.478 237.607 241.863 239.138L242.551 239.864C244.228 238.274 245.783 236.389 247.24 234.259L246.415 233.694ZM236.036 243.092C233.946 244.001 231.686 244.492 229.217 244.5L229.221 245.5C231.825 245.491 234.219 244.973 236.435 244.009L236.036 243.092ZM222.244 243.374C220.196 242.741 218.023 241.832 215.712 240.619L215.247 241.505C217.604 242.741 219.834 243.676 221.949 244.329L222.244 243.374ZM209.581 236.904C208.589 236.228 207.575 235.502 206.537 234.727L205.938 235.528C206.987 236.311 208.013 237.045 209.018 237.73L209.581 236.904ZM206.537 234.727C205.575 234.007 204.624 233.288 203.685 232.569L203.077 233.363C204.019 234.084 204.973 234.806 205.938 235.528L206.537 234.727ZM198.187 228.257C196.357 226.786 194.575 225.317 192.84 223.85L192.194 224.613C193.936 226.086 195.725 227.561 197.561 229.036L198.187 228.257ZM187.549 219.255C185.797 217.69 184.097 216.128 182.449 214.569L181.762 215.296C183.417 216.861 185.124 218.43 186.883 220.001L187.549 219.255ZM177.44 209.686C175.775 208.011 174.169 206.341 172.621 204.676L171.889 205.357C173.444 207.03 175.058 208.708 176.731 210.391L177.44 209.686ZM167.983 199.506C166.425 197.705 164.934 195.912 163.509 194.126L162.727 194.75C164.161 196.546 165.66 198.35 167.226 200.161L167.983 199.506ZM159.331 188.665C157.916 186.732 156.578 184.81 155.314 182.901L154.48 183.453C155.753 185.376 157.1 187.31 158.524 189.255L159.331 188.665ZM151.619 177.007C150.421 174.981 149.306 172.971 148.271 170.978L147.384 171.439C148.427 173.448 149.551 175.474 150.759 177.516L151.619 177.007ZM145.244 164.69C144.278 162.513 143.408 160.359 142.63 158.23L141.691 158.573C142.476 160.723 143.355 162.898 144.33 165.096L145.244 164.69ZM140.488 151.63C139.842 149.351 139.303 147.105 138.867 144.897L137.886 145.091C138.328 147.326 138.873 149.598 139.526 151.903L140.488 151.63ZM137.824 138.054C137.573 135.699 137.441 133.394 137.422 131.141L136.422 131.15C136.442 133.436 136.575 135.774 136.829 138.159L137.824 138.054ZM137.724 124.222C137.954 121.871 138.31 119.588 138.785 117.379L137.808 117.169C137.324 119.416 136.962 121.737 136.729 124.125L137.724 124.222ZM140.647 110.713C141.417 108.494 142.314 106.368 143.328 104.339L142.434 103.892C141.4 105.96 140.486 108.126 139.702 110.385L140.647 110.713ZM146.826 98.3825C148.14 96.4584 149.571 94.6515 151.107 92.9691L150.368 92.2949C148.801 94.0121 147.34 95.8559 146 97.8185L146.826 98.3825ZM156.113 88.2219C157.905 86.7549 159.794 85.429 161.765 84.2525L161.253 83.3938C159.239 84.5957 157.31 85.95 155.48 87.4482L156.113 88.2219ZM167.939 81.1693C170.064 80.3006 172.257 79.59 174.505 79.0458L174.27 78.0739C171.973 78.6299 169.732 79.356 167.56 80.2437L167.939 81.1693ZM181.322 77.9281C183.587 77.7284 185.89 77.6925 188.218 77.8282L188.276 76.8299C185.9 76.6914 183.548 76.728 181.234 76.9319L181.322 77.9281ZM195.059 78.7162C197.272 79.1622 199.496 79.7653 201.72 80.532L202.046 79.5866C199.78 78.8056 197.513 78.1907 195.256 77.7359L195.059 78.7162ZM208.1 83.1903C210.119 84.1805 212.13 85.312 214.125 86.5897L214.664 85.7477C212.638 84.4499 210.594 83.2997 208.54 82.2924L208.1 83.1903ZM219.749 90.6248C220.654 91.3463 221.553 92.1001 222.447 92.8867L223.108 92.1361C222.202 91.3389 221.29 90.5746 220.372 89.8429L219.749 90.6248ZM222.447 92.8867C223.264 93.6062 224.069 94.4208 224.856 95.3246L225.61 94.6678C224.797 93.7343 223.962 92.8878 223.108 92.1361L222.447 92.8867ZM228.847 100.918C229.967 102.801 231.026 104.872 232.008 107.107L232.924 106.704C231.927 104.437 230.85 102.328 229.706 100.407L228.847 100.918ZM234.488 113.588C235.197 115.73 235.84 117.971 236.408 120.295L237.38 120.058C236.805 117.709 236.155 115.442 235.437 113.274L234.488 113.588ZM237.816 127.119C238.198 129.367 238.51 131.669 238.746 134.014L239.741 133.914C239.502 131.546 239.187 129.222 238.802 126.952L237.816 127.119ZM239.214 140.964C239.292 143.263 239.296 145.589 239.22 147.931L240.22 147.964C240.297 145.599 240.293 143.25 240.213 140.929L239.214 140.964ZM238.757 154.883C238.524 157.181 238.21 159.485 237.81 161.783L238.795 161.955C239.199 159.632 239.517 157.305 239.752 154.984L238.757 154.883ZM236.36 168.593C235.792 170.836 235.136 173.063 234.386 175.267L235.333 175.589C236.092 173.359 236.755 171.106 237.329 168.838L236.36 168.593ZM231.87 181.753C230.944 183.867 229.921 185.949 228.799 187.989L229.675 188.471C230.812 186.404 231.848 184.295 232.786 182.154L231.87 181.753ZM225.167 193.913C223.875 195.812 222.482 197.664 220.985 199.458L221.753 200.099C223.271 198.279 224.683 196.401 225.994 194.475L225.167 193.913ZM216.277 204.564C214.648 206.165 212.919 207.706 211.086 209.18L211.713 209.959C213.571 208.464 215.325 206.901 216.978 205.278L216.277 204.564ZM205.466 213.272C203.564 214.522 201.568 215.709 199.476 216.824L199.946 217.707C202.065 216.577 204.087 215.375 206.015 214.108L205.466 213.272ZM193.221 219.82C191.145 220.708 188.987 221.533 186.744 222.291L187.064 223.239C189.332 222.473 191.514 221.638 193.614 220.739L193.221 219.82ZM180.09 224.27C177.896 224.839 175.629 225.348 173.288 225.794L173.475 226.776C175.837 226.327 178.126 225.813 180.341 225.238L180.09 224.27ZM166.348 226.898C164.12 227.186 161.831 227.421 159.478 227.599L159.554 228.596C161.923 228.417 164.23 228.18 166.476 227.89L166.348 226.898ZM152.53 227.956C150.229 228.019 147.874 228.033 145.462 227.993L145.445 228.993C147.872 229.033 150.242 229.019 152.557 228.955L152.53 227.956ZM138.591 227.745C136.305 227.619 133.972 227.448 131.591 227.23L131.5 228.226C133.893 228.445 136.238 228.617 138.536 228.744L138.591 227.745ZM124.676 226.484C123.501 226.338 122.316 226.181 121.119 226.014L120.98 227.004C122.182 227.172 123.373 227.33 124.552 227.476L124.676 226.484ZM121.119 226.014C119.873 225.839 118.668 225.64 117.504 225.418L117.316 226.4C118.498 226.626 119.719 226.827 120.98 227.004L121.119 226.014ZM110.882 223.771C108.538 223.034 106.402 222.176 104.457 221.205L104.01 222.1C106.006 223.097 108.193 223.974 110.582 224.725L110.882 223.771ZM98.6144 217.517C96.7577 216.044 95.1568 214.415 93.7865 212.643L92.9955 213.255C94.4155 215.091 96.0734 216.777 97.9927 218.3L98.6144 217.517ZM90.2655 206.742C89.3423 204.688 88.6226 202.501 88.084 200.191L87.1101 200.418C87.6617 202.784 88.4009 205.033 89.3535 207.152L90.2655 206.742ZM87.0252 193.349C86.8336 191.121 86.766 188.808 86.8065 186.418L85.8066 186.401C85.7656 188.82 85.834 191.168 86.0289 193.434L87.0252 193.349ZM87.1945 179.474C87.4 177.214 87.6798 174.9 88.0225 172.538L87.0328 172.395C86.688 174.772 86.4059 177.104 86.1986 179.384L87.1945 179.474ZM89.1711 165.615C89.5885 163.356 90.0496 161.061 90.5454 158.736L89.5674 158.527C89.07 160.86 88.607 163.164 88.1878 165.433L89.1711 165.615ZM92.0676 151.93C92.5919 149.678 93.1391 147.403 93.7016 145.109L92.7303 144.87C92.1672 147.167 91.619 149.446 91.0936 151.703L92.0676 151.93ZM95.3988 138.285C95.9641 136.035 96.5356 133.774 97.1075 131.501L96.1377 131.257C95.5664 133.528 94.994 135.792 94.429 138.041L95.3988 138.285ZM98.8071 124.689C99.3666 122.42 99.9189 120.145 100.457 117.867L99.484 117.637C98.9467 119.911 98.3951 122.183 97.8362 124.45L98.8071 124.689ZM102.025 111.022C102.531 108.726 103.016 106.432 103.473 104.143L102.493 103.948C102.037 106.229 101.553 108.516 101.048 110.806L102.025 111.022ZM104.758 97.2525C105.16 94.9225 105.524 92.6016 105.843 90.2941L104.853 90.1571C104.535 92.4525 104.173 94.7623 103.773 97.0826L104.758 97.2525ZM106.669 83.2999C106.895 80.9461 107.066 78.6106 107.171 76.2982L106.172 76.2527C106.068 78.5468 105.899 80.8654 105.673 83.2039L106.669 83.2999ZM107.28 69.2641C107.241 66.8798 107.119 64.5258 106.905 62.2075L105.91 62.2994C106.121 64.5905 106.241 66.9193 106.28 69.2806L107.28 69.2641ZM105.951 55.2233C105.521 52.893 104.981 50.6071 104.317 48.3718L103.359 48.6563C104.011 50.8554 104.544 53.1067 104.967 55.4046L105.951 55.2233ZM101.908 41.7319C100.972 39.5773 99.8981 37.4814 98.6748 35.4508L97.8183 35.9668C99.018 37.9583 100.072 40.0148 100.991 42.1304L101.908 41.7319ZM94.6406 29.6795C93.1945 27.8836 91.6048 26.1526 89.8616 24.4919L89.1718 25.2159C90.8835 26.8466 92.4435 28.5453 93.8617 30.3067L94.6406 29.6795ZM84.3996 19.9007C82.5935 18.5589 80.6612 17.2759 78.5961 16.0552L78.0872 16.9161C80.1233 18.1196 82.0263 19.3832 83.8032 20.7034L84.3996 19.9007ZM72.3871 12.7679C70.3091 11.7835 68.1197 10.8517 65.8143 9.97499L65.4589 10.9097C67.7408 11.7775 69.9059 12.6991 71.959 13.6717L72.3871 12.7679ZM59.2932 7.73993C57.0673 7.05453 54.7473 6.41386 52.33 5.81963L52.0913 6.79071C54.4909 7.3806 56.7923 8.01619 58.9989 8.69565L59.2932 7.73993ZM45.6718 4.35037C43.3929 3.90154 41.0364 3.48972 38.6001 3.1161L38.4485 4.10455C40.8715 4.47612 43.2141 4.88553 45.4785 5.33153L45.6718 4.35037ZM31.7766 2.19521C29.507 1.92862 27.1741 1.69237 24.7765 1.48721L24.6913 2.48358C27.0788 2.68785 29.4012 2.92307 31.6599 3.18839L31.7766 2.19521ZM17.6602 0.9814C15.4364 0.854172 13.1611 0.751709 10.8333 0.674545L10.8002 1.674C13.1202 1.7509 15.3875 1.85301 17.6031 1.97977L17.6602 0.9814ZM3.69128 0.519531C2.4743 0.506531 1.24393 0.5 0 0.5V1.5C1.24042 1.5 2.46722 1.50652 3.6806 1.51947L3.69128 0.519531Z" fill="#FD5956"/>
</svg>
