<svg width="24" height="24" viewBox="0 0 24 24" fill="none" xmlns="http://www.w3.org/2000/svg">
<path fill-rule="evenodd" clip-rule="evenodd" d="M11.9999 21.6004C17.3018 21.6004 21.5999 17.3023 21.5999 12.0004C21.5999 6.69846 17.3018 2.40039 11.9999 2.40039C6.69797 2.40039 2.3999 6.69846 2.3999 12.0004C2.3999 17.3023 6.69797 21.6004 11.9999 21.6004ZM16.6278 9.82975C16.9201 9.42776 16.8312 8.86488 16.4293 8.57253C16.0273 8.28017 15.4644 8.36905 15.172 8.77104L10.9915 14.5192L8.7363 12.264C8.38483 11.9125 7.81498 11.9125 7.46351 12.264C7.11203 12.6155 7.11203 13.1853 7.46351 13.5368L10.4635 16.5368C10.6496 16.7229 10.9079 16.8182 11.1703 16.7976C11.4327 16.777 11.673 16.6426 11.8278 16.4297L16.6278 9.82975Z" fill="#FF4545"/>
</svg>
