<svg width="86" height="85" viewBox="0 0 86 85" fill="none" xmlns="http://www.w3.org/2000/svg">
<rect x="0.25" width="85" height="85" rx="42.5" fill="white"/>
<path d="M66.6838 63.0152H18.815V24.7886H66.6838V63.0152ZM53.8998 19.8508H57.148V23.095H53.8998V19.8508ZM58.1615 19.8508H61.4057V23.095H58.1615V19.8508ZM62.4221 19.8508H65.6663V23.095H62.4221V19.8508ZM66.0672 18.5044H19.4328C17.1226 18.5044 15.25 20.3742 15.25 22.6866V62.3146C15.25 64.623 17.1226 66.4956 19.4328 66.4956H66.0672C68.3774 66.4956 70.25 64.623 70.25 62.3146V22.6866C70.25 20.3742 68.3774 18.5044 66.0672 18.5044Z" fill="#FF4545"/>
<path d="M66.6336 62.9722V24.8262H18.8672V62.9722H66.6336Z" fill="white"/>
<path d="M34.8456 48.7263C34.8456 51.6278 32.4942 53.9746 29.5915 53.9746C26.6934 53.9746 24.3438 51.6278 24.3438 48.7263C24.3438 45.827 26.6934 43.4791 29.5915 43.4791C32.4942 43.4791 34.8456 45.827 34.8456 48.7263Z" fill="#FF4545"/>
<path d="M62.9379 31.5916C62.9379 33.6884 61.2426 35.3809 59.1492 35.3809C57.0552 35.3809 55.3594 33.6884 55.3594 31.5916C55.3594 29.4965 57.0552 27.8023 59.1492 27.8023C61.2426 27.8023 62.9379 29.4965 62.9379 31.5916Z" fill="#FF4545"/>
<path d="M48.8307 39.3546L43.7963 39.6137C42.4848 37.577 40.7495 35.8336 38.7081 34.5255L38.9661 29.4963C38.1951 29.1108 37.3921 28.7836 36.5707 28.4982L33.1961 32.2371C32.035 31.986 30.8328 31.8516 29.5939 31.8516C28.3596 31.8516 27.1562 31.986 25.9951 32.2371L22.6194 28.4982C22.2728 28.6189 21.9302 28.7521 21.5898 28.8888V40.3127C23.6729 38.3245 26.4876 37.0994 29.5939 37.0994C36.0176 37.0994 41.2231 42.3054 41.2231 48.7257C41.2231 54.6455 36.7972 59.5203 31.0747 60.249H41.9014C42.6009 59.5043 43.2415 58.7036 43.7963 57.8388L48.8307 58.0984C49.2082 57.3263 49.5394 56.5227 49.822 55.7088L46.0836 52.3313C46.337 51.1657 46.4731 49.9663 46.4731 48.7257C46.4731 47.4937 46.337 46.2868 46.0836 45.1303L49.822 41.7517C49.5394 40.9304 49.2082 40.1256 48.8307 39.3546Z" fill="#FF4545"/>
<path d="M63.9112 38.4888C62.5573 39.4274 60.9209 39.9833 59.1501 39.9833C54.5144 39.9833 50.7566 36.2272 50.7566 31.5914C50.7566 30.1238 51.1404 28.7482 51.8033 27.5488H45.6444L47.2453 28.993C47.0657 29.8309 46.9679 30.7032 46.9679 31.5914C46.9679 32.4809 47.0657 33.352 47.2453 34.1905L44.5508 36.6213C44.7544 37.2253 44.9883 37.795 45.2652 38.3566L48.8994 38.1725C49.8443 39.6476 51.0981 40.8967 52.5691 41.8445L52.3844 45.4736C52.942 45.7498 53.5203 45.9935 54.1157 46.1948L56.5534 43.4957C57.3874 43.6799 58.2584 43.7806 59.1501 43.7806C60.0424 43.7806 60.9101 43.6799 61.748 43.4957L63.9112 45.89V38.4888Z" fill="#FF4545"/>
</svg>
