<svg width="515" height="525" viewBox="0 0 515 525" fill="none" xmlns="http://www.w3.org/2000/svg">
<path d="M287.65 485.028C263.565 506.714 226.461 504.769 204.775 480.685L39.9707 297.651C18.2849 273.566 20.2295 236.462 44.3141 214.776L227.348 49.9718C251.433 28.286 288.537 30.2306 310.223 54.3152L475.027 237.349C496.713 261.434 494.768 298.538 470.684 320.224L287.65 485.028Z" stroke="#FF4545"/>
<path d="M301.814 450.839C277.729 472.525 240.625 470.58 218.939 446.495L90.3738 303.709C68.6879 279.624 70.6325 242.52 94.7171 220.834L237.503 92.2688C261.588 70.5829 298.692 72.5275 320.378 96.6121L448.944 239.399C470.63 263.483 468.685 300.587 444.6 322.273L301.814 450.839Z" stroke="#FF4545"/>
<path fill-rule="evenodd" clip-rule="evenodd" d="M294.904 427.229C282.591 438.315 263.622 437.321 252.535 425.008L126.145 284.638C115.058 272.325 116.053 253.356 128.365 242.269L268.736 115.879C281.049 104.792 300.018 105.786 311.105 118.099L437.495 258.47C448.582 270.783 447.587 289.752 435.275 300.838L294.904 427.229Z" fill="#FF4545"/>
<g filter="url(#filter0_d_440_1312)">
<ellipse cx="161.105" cy="338.72" rx="25.132" ry="24.9293" fill="#FF4545"/>
<path d="M184.737 338.72C184.737 351.648 174.168 362.149 161.105 362.149C148.042 362.149 137.473 351.648 137.473 338.72C137.473 325.792 148.042 315.291 161.105 315.291C174.168 315.291 184.737 325.792 184.737 338.72Z" stroke="white" stroke-width="3"/>
</g>
<path d="M171.357 347.713V330.374H149.645V347.713H171.357Z" fill="#FF4545"/>
<path d="M156.906 341.238C156.906 342.557 155.838 343.624 154.518 343.624C153.201 343.624 152.133 342.557 152.133 341.238C152.133 339.921 153.201 338.853 154.518 338.853C155.838 338.853 156.906 339.921 156.906 341.238Z" fill="white"/>
<path d="M169.675 333.449C169.675 334.403 168.905 335.172 167.953 335.172C167.001 335.172 166.23 334.403 166.23 333.449C166.23 332.497 167.001 331.727 167.953 331.727C168.905 331.727 169.675 332.497 169.675 333.449Z" fill="white"/>
<path d="M171.379 347.733H149.62V330.357H171.379V347.733ZM165.568 328.113H167.045V329.587H165.568V328.113ZM167.505 328.113H168.98V329.587H167.505V328.113ZM169.442 328.113H170.916V329.587H169.442V328.113ZM171.099 327.501H149.901C148.851 327.501 148 328.351 148 329.402V347.414C148 348.464 148.851 349.315 149.901 349.315H171.099C172.149 349.315 173 348.464 173 347.414V329.402C173 328.351 172.149 327.501 171.099 327.501Z" fill="white"/>
<path d="M163.265 336.978L160.977 337.096C160.381 336.17 159.592 335.378 158.664 334.783L158.781 332.497C158.431 332.322 158.066 332.173 157.692 332.043L156.158 333.743C155.631 333.629 155.084 333.568 154.521 333.568C153.96 333.568 153.413 333.629 152.885 333.743L151.351 332.043C151.193 332.098 151.038 332.159 150.883 332.221V337.414C151.83 336.51 153.109 335.953 154.521 335.953C157.441 335.953 159.807 338.319 159.807 341.238C159.807 343.929 157.795 346.144 155.194 346.476H160.115C160.433 346.137 160.724 345.773 160.977 345.38L163.265 345.498C163.437 345.147 163.587 344.782 163.716 344.412L162.016 342.877C162.132 342.347 162.193 341.802 162.193 341.238C162.193 340.678 162.132 340.129 162.016 339.603L163.716 338.068C163.587 337.694 163.437 337.329 163.265 336.978Z" fill="white"/>
<path d="M170.12 336.585C169.505 337.012 168.761 337.264 167.956 337.264C165.849 337.264 164.141 335.557 164.141 333.45C164.141 332.783 164.316 332.158 164.617 331.612H161.817L162.545 332.269C162.463 332.65 162.419 333.046 162.419 333.45C162.419 333.854 162.463 334.25 162.545 334.631L161.32 335.736C161.413 336.011 161.519 336.27 161.645 336.525L163.297 336.441C163.726 337.112 164.296 337.68 164.965 338.11L164.881 339.76C165.135 339.886 165.397 339.996 165.668 340.088L166.776 338.861C167.155 338.945 167.551 338.991 167.956 338.991C168.362 338.991 168.756 338.945 169.137 338.861L170.12 339.949V336.585Z" fill="white"/>
<g filter="url(#filter1_d_440_1312)">
<ellipse cx="84.494" cy="398.306" rx="18.6463" ry="18.4436" fill="#FF4545"/>
<path d="M101.64 398.306C101.64 407.648 93.9791 415.25 84.494 415.25C75.0088 415.25 67.3477 407.648 67.3477 398.306C67.3477 388.964 75.0088 381.362 84.494 381.362C93.9791 381.362 101.64 388.964 101.64 398.306Z" stroke="white" stroke-width="3"/>
</g>
<path fill-rule="evenodd" clip-rule="evenodd" d="M83.046 394.166C83.046 394.967 83.693 395.614 84.4937 395.614C85.2945 395.614 85.9414 394.967 85.9414 394.166V389.823C85.9414 389.022 85.2945 388.375 84.4937 388.375C83.693 388.375 83.046 389.022 83.046 389.823V394.166Z" fill="white" stroke="#FF4545"/>
<path fill-rule="evenodd" clip-rule="evenodd" d="M84.4937 401.405C85.2945 401.405 85.9414 402.052 85.9414 402.852V407.196C85.9414 407.996 85.2945 408.643 84.4937 408.643C83.693 408.643 83.046 407.996 83.046 407.196V402.852C83.046 402.052 83.693 401.405 84.4937 401.405Z" fill="white" stroke="#FF4545"/>
<path fill-rule="evenodd" clip-rule="evenodd" d="M75.8108 397.062H80.1539C80.9546 397.062 81.6016 397.708 81.6016 398.509C81.6016 399.31 80.9546 399.957 80.1539 399.957H75.8108C75.01 399.957 74.3631 399.31 74.3631 398.509C74.3631 397.708 75.01 397.062 75.8108 397.062Z" fill="white" stroke="#FF4545"/>
<path fill-rule="evenodd" clip-rule="evenodd" d="M88.8381 397.062H93.1812C93.982 397.062 94.6289 397.708 94.6289 398.509C94.6289 399.31 93.982 399.957 93.1812 399.957H88.8381C88.0374 399.957 87.3904 399.31 87.3904 398.509C87.3904 397.708 88.0374 397.062 88.8381 397.062Z" fill="white" stroke="#FF4545"/>
<path fill-rule="evenodd" clip-rule="evenodd" d="M80.4015 396.46C80.967 397.025 81.8854 397.025 82.4509 396.46C83.0164 395.894 83.0164 394.976 82.4509 394.411L79.379 391.339C78.8135 390.773 77.8952 390.773 77.3297 391.339C76.7641 391.904 76.7641 392.823 77.3297 393.388L80.4015 396.46Z" fill="white" stroke="#FF4545"/>
<path fill-rule="evenodd" clip-rule="evenodd" d="M86.5445 400.559C87.11 399.993 88.0284 399.993 88.5939 400.559L91.6657 403.631C92.2312 404.196 92.2312 405.115 91.6657 405.68C91.1002 406.246 90.1818 406.246 89.6163 405.68L86.5445 402.608C85.979 402.038 85.979 401.124 86.5445 400.559Z" fill="white" stroke="#FF4545"/>
<path fill-rule="evenodd" clip-rule="evenodd" d="M77.3297 403.626L80.4015 400.554C80.967 399.989 81.8854 399.989 82.4509 400.554C83.0164 401.12 83.0164 402.038 82.4509 402.603L79.379 405.675C78.8135 406.241 77.8952 406.241 77.3297 405.675C76.7641 405.11 76.7641 404.191 77.3297 403.626Z" fill="white" stroke="#FF4545"/>
<path fill-rule="evenodd" clip-rule="evenodd" d="M86.5445 394.415L89.6163 391.344C90.1818 390.778 91.1002 390.778 91.6657 391.344C92.2312 391.909 92.2312 392.827 91.6657 393.393L88.5939 396.465C88.0284 397.03 87.11 397.03 86.5445 396.465C85.979 395.899 85.979 394.981 86.5445 394.415Z" fill="white" stroke="#FF4545"/>
<g filter="url(#filter2_d_440_1312)">
<ellipse cx="464.31" cy="226.841" rx="18.6463" ry="18.4436" fill="#FF4545"/>
<path d="M481.457 226.841C481.457 236.183 473.796 243.785 464.31 243.785C454.825 243.785 447.164 236.183 447.164 226.841C447.164 217.499 454.825 209.897 464.31 209.897C473.796 209.897 481.457 217.499 481.457 226.841Z" stroke="white" stroke-width="3"/>
</g>
<path fill-rule="evenodd" clip-rule="evenodd" d="M464.308 232.956L458.045 236.772L459.702 229.574L454.174 224.734L461.461 224.102L464.308 217.315L467.154 224.102L474.441 224.734L468.913 229.574L470.57 236.772L464.308 232.956Z" fill="white"/>
<g filter="url(#filter3_d_440_1312)">
<ellipse cx="394.59" cy="405.604" rx="42.1569" ry="41.9542" fill="#FF4545"/>
<path d="M435.247 405.604C435.247 427.939 417.051 446.058 394.59 446.058C372.129 446.058 353.934 427.939 353.934 405.604C353.934 383.268 372.129 365.149 394.59 365.149C417.051 365.149 435.247 383.268 435.247 405.604Z" stroke="white" stroke-width="3"/>
</g>
<path fill-rule="evenodd" clip-rule="evenodd" d="M400.901 403.476C400.801 403.434 400.701 403.392 400.61 403.334C400.027 403.001 399.594 402.427 399.452 401.736L397.911 391.938L397.895 391.455C397.895 390.864 398.236 390.606 398.728 390.373C398.786 390.348 398.844 390.323 398.902 390.298C399.502 390.015 399.91 389.649 399.91 388.942C399.91 387.268 399.369 387.16 398.394 387.16H390.791C389.817 387.16 389.275 387.26 389.275 388.942C389.275 389.649 389.683 390.015 390.283 390.298C390.341 390.323 390.4 390.34 390.458 390.373C390.949 390.615 391.291 390.873 391.291 391.455L391.274 391.938L389.733 401.736C389.592 402.427 389.159 403.001 388.576 403.334C388.484 403.392 388.384 403.434 388.284 403.476C386.644 404.325 385.27 406.04 385.27 408.029C385.27 409.353 385.561 409.802 386.535 409.802H393.256L394.255 424.453H394.922L395.921 409.802H402.65C403.624 409.802 403.916 409.411 403.916 408.029C403.916 406.04 402.542 404.325 400.901 403.476Z" fill="white"/>
<g filter="url(#filter4_d_440_1312)">
<circle cx="294.668" cy="60.2408" r="37.0899" fill="#FF4545"/>
<circle cx="294.668" cy="60.2408" r="35.5899" stroke="white" stroke-width="3"/>
</g>
<path d="M293.707 73.9678V77.1484H296.288V73.9678H293.707Z" fill="white"/>
<path d="M311.957 41.0926H278.042C276.361 41.0926 275 42.4528 275 44.1348V70.9275C275 72.6029 276.361 73.9668 278.042 73.9668H311.957C313.636 73.9668 315 72.6029 315 70.9275V44.1348C315 42.4528 313.636 41.0926 311.957 41.0926Z" fill="white"/>
<path d="M312.408 71.4375V43.6348H277.594V71.4375H312.408Z" fill="#FF4545"/>
<path d="M290.397 59.6689H280.953V47.281H290.397V59.6689Z" fill="white"/>
<path d="M309.505 51.6812H293.324V47.2808H309.505V51.6812Z" fill="white"/>
<path d="M309.505 59.6689H293.324V55.2685H309.505V59.6689Z" fill="white"/>
<path d="M301.482 77.1476H288.52C288.015 77.1476 287.605 77.4575 287.605 77.84V78.5328L302.396 78.5356C302.396 78.5356 302.396 78.225 302.396 77.8416C302.396 77.4583 301.987 77.1476 301.482 77.1476Z" fill="white"/>
<g filter="url(#filter5_d_440_1312)">
<ellipse cx="126.649" cy="130.773" rx="42.1569" ry="41.9542" fill="#FF4545"/>
<path d="M167.306 130.773C167.306 153.108 149.11 171.227 126.649 171.227C104.188 171.227 85.9922 153.108 85.9922 130.773C85.9922 108.437 104.188 90.3184 126.649 90.3184C149.11 90.3184 167.306 108.437 167.306 130.773Z" stroke="white" stroke-width="3"/>
</g>
<path d="M127.074 128.89C127.074 128.136 126.464 127.526 125.711 127.526C124.958 127.526 124.348 128.136 124.348 128.89C124.348 129.642 124.958 130.252 125.711 130.252C126.464 130.252 127.074 129.642 127.074 128.89Z" fill="white" stroke="white" stroke-width="0.5"/>
<path d="M131.914 128.89C131.914 128.136 131.303 127.526 130.55 127.526C129.798 127.526 129.188 128.136 129.188 128.89C129.188 129.642 129.797 130.252 130.55 130.252C131.303 130.252 131.914 129.642 131.914 128.89Z" fill="white" stroke="white" stroke-width="0.5"/>
<path d="M136.753 128.89C136.753 128.136 136.143 127.526 135.391 127.526C134.638 127.526 134.027 128.136 134.027 128.89C134.027 129.642 134.638 130.252 135.391 130.252C136.143 130.252 136.753 129.642 136.753 128.89Z" fill="white" stroke="white" stroke-width="0.5"/>
<path d="M135.366 141.753L135.366 141.752L135.376 141.749C135.616 141.67 135.952 141.66 136.225 141.835L144.112 145.898L141.034 138.737C140.856 138.371 140.96 137.95 141.19 137.643L141.195 137.637L141.199 137.632C143.225 135.226 144.366 132.057 144.366 128.889C144.366 120.207 136.446 113.68 127.89 115.39C121.489 116.722 116.864 122.363 116.864 128.889C116.864 136.556 123.137 142.64 130.615 142.64C132.196 142.64 133.844 142.324 135.366 141.753ZM112.547 134.987L112.548 134.987L112.556 134.998C112.785 135.305 112.891 135.725 112.712 136.091L109.957 142.539L117.003 138.868C117.275 138.693 117.609 138.702 117.849 138.78C118.008 138.826 118.159 138.871 118.307 138.916C111.69 130.908 114.536 118.759 123.995 114.47C116.47 113.401 109.637 119.323 109.637 126.953C109.637 129.863 110.65 132.71 112.547 134.987ZM147.169 147.824L147.169 147.824L147.172 147.83C147.252 148.03 147.281 148.254 147.209 148.47C147.139 148.679 146.985 148.848 146.764 148.967C146.415 149.292 145.987 149.27 145.62 149.123L145.609 149.118L145.598 149.112L135.563 143.872C130.949 145.458 125.456 144.802 121.106 141.588C119.856 141.517 118.667 141.27 117.539 140.902L108.277 145.757L108.278 145.757L108.273 145.76C107.946 145.923 107.444 145.934 107.094 145.596C106.734 145.313 106.676 144.802 106.832 144.41L106.832 144.41L106.835 144.404L110.52 135.829C108.607 133.291 107.524 130.186 107.524 126.953C107.524 118.88 114.088 112.25 122.227 112.25C124.173 112.25 125.99 112.635 127.739 113.339C137.542 111.618 146.415 119.143 146.415 128.954C146.415 132.379 145.269 135.804 143.163 138.539L147.169 147.824Z" fill="white" stroke="white" stroke-width="0.5"/>
<defs>
<filter id="filter0_d_440_1312" x="112.462" y="291.496" width="97.2867" height="96.8795" filterUnits="userSpaceOnUse" color-interpolation-filters="sRGB">
<feFlood flood-opacity="0" result="BackgroundImageFix"/>
<feColorMatrix in="SourceAlpha" type="matrix" values="0 0 0 0 0 0 0 0 0 0 0 0 0 0 0 0 0 0 127 0" result="hardAlpha"/>
<feMorphology radius="3.64819" operator="dilate" in="SourceAlpha" result="effect1_dropShadow_440_1312"/>
<feOffset dy="1.21606"/>
<feGaussianBlur stdDeviation="9.93118"/>
<feColorMatrix type="matrix" values="0 0 0 0 0 0 0 0 0 0 0 0 0 0 0 0 0 0 0.06 0"/>
<feBlend mode="normal" in2="BackgroundImageFix" result="effect1_dropShadow_440_1312"/>
<feBlend mode="normal" in="SourceGraphic" in2="effect1_dropShadow_440_1312" result="shape"/>
</filter>
<filter id="filter1_d_440_1312" x="42.3371" y="357.568" width="84.3141" height="83.9083" filterUnits="userSpaceOnUse" color-interpolation-filters="sRGB">
<feFlood flood-opacity="0" result="BackgroundImageFix"/>
<feColorMatrix in="SourceAlpha" type="matrix" values="0 0 0 0 0 0 0 0 0 0 0 0 0 0 0 0 0 0 127 0" result="hardAlpha"/>
<feMorphology radius="3.64819" operator="dilate" in="SourceAlpha" result="effect1_dropShadow_440_1312"/>
<feOffset dy="1.21606"/>
<feGaussianBlur stdDeviation="9.93118"/>
<feColorMatrix type="matrix" values="0 0 0 0 0 0 0 0 0 0 0 0 0 0 0 0 0 0 0.06 0"/>
<feBlend mode="normal" in2="BackgroundImageFix" result="effect1_dropShadow_440_1312"/>
<feBlend mode="normal" in="SourceGraphic" in2="effect1_dropShadow_440_1312" result="shape"/>
</filter>
<filter id="filter2_d_440_1312" x="422.154" y="186.103" width="84.3141" height="83.9083" filterUnits="userSpaceOnUse" color-interpolation-filters="sRGB">
<feFlood flood-opacity="0" result="BackgroundImageFix"/>
<feColorMatrix in="SourceAlpha" type="matrix" values="0 0 0 0 0 0 0 0 0 0 0 0 0 0 0 0 0 0 127 0" result="hardAlpha"/>
<feMorphology radius="3.64819" operator="dilate" in="SourceAlpha" result="effect1_dropShadow_440_1312"/>
<feOffset dy="1.21606"/>
<feGaussianBlur stdDeviation="9.93118"/>
<feColorMatrix type="matrix" values="0 0 0 0 0 0 0 0 0 0 0 0 0 0 0 0 0 0 0.06 0"/>
<feBlend mode="normal" in2="BackgroundImageFix" result="effect1_dropShadow_440_1312"/>
<feBlend mode="normal" in="SourceGraphic" in2="effect1_dropShadow_440_1312" result="shape"/>
</filter>
<filter id="filter3_d_440_1312" x="328.923" y="341.355" width="131.334" height="130.929" filterUnits="userSpaceOnUse" color-interpolation-filters="sRGB">
<feFlood flood-opacity="0" result="BackgroundImageFix"/>
<feColorMatrix in="SourceAlpha" type="matrix" values="0 0 0 0 0 0 0 0 0 0 0 0 0 0 0 0 0 0 127 0" result="hardAlpha"/>
<feMorphology radius="3.64819" operator="dilate" in="SourceAlpha" result="effect1_dropShadow_440_1312"/>
<feOffset dy="1.21606"/>
<feGaussianBlur stdDeviation="9.93118"/>
<feColorMatrix type="matrix" values="0 0 0 0 0 0 0 0 0 0 0 0 0 0 0 0 0 0 0.06 0"/>
<feBlend mode="normal" in2="BackgroundImageFix" result="effect1_dropShadow_440_1312"/>
<feBlend mode="normal" in="SourceGraphic" in2="effect1_dropShadow_440_1312" result="shape"/>
</filter>
<filter id="filter4_d_440_1312" x="234.068" y="0.856385" width="121.201" height="121.201" filterUnits="userSpaceOnUse" color-interpolation-filters="sRGB">
<feFlood flood-opacity="0" result="BackgroundImageFix"/>
<feColorMatrix in="SourceAlpha" type="matrix" values="0 0 0 0 0 0 0 0 0 0 0 0 0 0 0 0 0 0 127 0" result="hardAlpha"/>
<feMorphology radius="3.64819" operator="dilate" in="SourceAlpha" result="effect1_dropShadow_440_1312"/>
<feOffset dy="1.21606"/>
<feGaussianBlur stdDeviation="9.93118"/>
<feColorMatrix type="matrix" values="0 0 0 0 0 0 0 0 0 0 0 0 0 0 0 0 0 0 0.06 0"/>
<feBlend mode="normal" in2="BackgroundImageFix" result="effect1_dropShadow_440_1312"/>
<feBlend mode="normal" in="SourceGraphic" in2="effect1_dropShadow_440_1312" result="shape"/>
</filter>
<filter id="filter5_d_440_1312" x="60.9816" y="66.5239" width="131.334" height="130.929" filterUnits="userSpaceOnUse" color-interpolation-filters="sRGB">
<feFlood flood-opacity="0" result="BackgroundImageFix"/>
<feColorMatrix in="SourceAlpha" type="matrix" values="0 0 0 0 0 0 0 0 0 0 0 0 0 0 0 0 0 0 127 0" result="hardAlpha"/>
<feMorphology radius="3.64819" operator="dilate" in="SourceAlpha" result="effect1_dropShadow_440_1312"/>
<feOffset dy="1.21606"/>
<feGaussianBlur stdDeviation="9.93118"/>
<feColorMatrix type="matrix" values="0 0 0 0 0 0 0 0 0 0 0 0 0 0 0 0 0 0 0.06 0"/>
<feBlend mode="normal" in2="BackgroundImageFix" result="effect1_dropShadow_440_1312"/>
<feBlend mode="normal" in="SourceGraphic" in2="effect1_dropShadow_440_1312" result="shape"/>
</filter>
</defs>
</svg>
