<svg width="240" height="40" viewBox="0 0 240 40" fill="none" xmlns="http://www.w3.org/2000/svg">
<path d="M104.681 20.9377C104.681 22.0497 104.753 26.7393 104.923 28.1655V28.2138C104.318 26.4008 103.083 22.6056 102.599 21.3728L99.8638 14.8461H98.3873C98.121 14.8461 98 14.9669 98 15.2328V31.7673C99.9122 31.7673 99.9364 31.7673 99.9364 31.3805V25.5064C99.9364 24.4911 99.8396 19.8257 99.6944 18.2545C100.3 20.14 101.582 24.0319 101.994 25.1197L104.778 31.7673H106.23C106.496 31.7673 106.641 31.6222 106.641 31.3805V14.8461C104.729 14.8461 104.681 14.8461 104.681 15.2328V20.9377Z" fill="#2E2E2E"/>
<path d="M112.701 30.1235C111.224 30.1235 110.522 29.4466 110.426 26.8359C111.636 26.8359 113.911 26.7634 115.509 26.4492C115.702 25.5789 115.775 24.3945 115.775 23.3067C115.775 20.7201 114.734 19.439 112.701 19.439C110.571 19.439 108.417 20.3092 108.417 26.3525C108.417 31.0904 110.038 32.009 112.289 32.009C114.105 32.009 115.63 31.4288 115.63 30.6795C115.63 30.2927 115.581 29.7367 115.46 29.35C114.637 29.8334 113.669 30.1235 112.701 30.1235ZM112.483 21.1553C113.548 21.1553 113.863 21.7838 113.887 23.5484C113.887 24.0077 113.863 24.5637 113.766 24.9988C112.919 25.2405 111.37 25.2889 110.426 25.2647C110.595 21.9771 111.466 21.1553 112.483 21.1553Z" fill="#2E2E2E"/>
<path d="M126.627 23.6209C126.288 25.5548 125.974 28.093 125.853 29.5192H125.731C125.731 29.5192 125.393 26.9326 124.981 25.0955L124.037 20.0191H122.754C122.246 20.0191 122.173 20.0916 122.125 20.4301L121.35 25.0471C121.084 26.57 120.794 28.6731 120.673 29.5192H120.527C120.527 29.5192 120.164 26.3283 119.68 23.6209L118.93 19.6807C116.921 19.6807 116.751 19.6807 116.824 20.0916C116.824 20.0916 118.47 27.7545 119.172 30.7278C119.317 31.4288 119.583 31.9123 119.995 31.9123C120.624 31.9123 121.617 31.8398 121.617 31.8398L122.173 29.0357C122.585 27.0293 122.899 24.467 123.069 22.9924C123.214 24.467 123.529 27.0052 123.964 29.0115L124.279 30.6553C124.449 31.5255 124.957 31.9123 125.296 31.9123C126.119 31.9123 126.554 31.8398 126.554 31.8398C126.651 31.8398 129.169 19.6807 129.169 19.6807C127.377 19.6807 127.305 19.6807 127.232 20.1158L126.627 23.6209Z" fill="#2E2E2E"/>
<path d="M140.018 22.2672C139.752 23.1616 139.316 24.8779 139.316 24.8779C139.316 24.8779 138.856 23.1616 138.542 22.1947L136.218 14.8461H134.814C134.596 14.8461 134.427 14.8702 134.427 15.2328V31.7673C136.242 31.7673 136.339 31.7673 136.339 31.3805V25.7482C136.266 23.21 135.855 18.7138 135.855 18.7138L135.879 18.6896C136.387 20.5509 137.259 23.6451 137.428 24.1527L138.687 28.0688H139.534C139.631 28.0688 139.752 28.0204 139.8 27.8754L141.083 24.1527C141.277 23.6209 142.172 20.4784 142.656 18.6412C142.608 19.2697 142.269 23.5242 142.221 25.8448L142.148 31.7673C144.133 31.7673 144.133 31.7673 144.133 31.3805V14.8461H142.56C142.293 14.8461 142.245 15.0153 142.172 15.2328L140.018 22.2672Z" fill="#2E2E2E"/>
<path d="M150.215 30.1235C148.738 30.1235 148.036 29.4466 147.94 26.8359C149.15 26.8359 151.425 26.7634 153.023 26.4492C153.216 25.5789 153.289 24.3945 153.289 23.3067C153.289 20.7201 152.248 19.439 150.215 19.439C148.085 19.439 145.93 20.3092 145.93 26.3525C145.93 31.0904 147.552 32.009 149.803 32.009C151.619 32.009 153.144 31.4288 153.144 30.6795C153.144 30.2927 153.095 29.7367 152.974 29.35C152.151 29.8334 151.183 30.1235 150.215 30.1235ZM149.997 21.1553C151.062 21.1553 151.377 21.7838 151.401 23.5484C151.401 24.0077 151.377 24.5637 151.28 24.9988C150.433 25.2405 148.884 25.2889 147.94 25.2647C148.109 21.9771 148.98 21.1553 149.997 21.1553Z" fill="#2E2E2E"/>
<path d="M160.147 19.9224C159.736 19.6082 159.179 19.439 158.404 19.439C156.347 19.439 154.701 21.3728 154.701 26.1591C154.701 31.4047 156.516 32.009 158.622 32.009C160.123 32.009 161.285 31.6706 162.108 31.2838V14C160.51 14 160.147 14 160.147 14.8944V19.9224ZM160.147 29.9059C159.76 30.1718 159.251 30.2685 158.695 30.2685C157.557 30.2685 156.855 29.5917 156.855 25.9415C156.855 21.9771 157.944 21.1311 159.034 21.1311C159.518 21.1311 159.832 21.2036 160.147 21.4453V29.9059Z" fill="#2E2E2E"/>
<path d="M164.234 16.5382C164.234 17.626 164.622 17.9886 165.227 17.9886C165.977 17.9886 166.34 17.4084 166.34 16.3931C166.34 15.4262 166.098 15.0394 165.348 15.0394C164.598 15.0394 164.234 15.6438 164.234 16.5382ZM166.268 19.6807C164.694 19.6807 164.307 19.6807 164.307 20.5751V31.7673C166.268 31.7673 166.268 31.7673 166.268 31.3805V19.6807Z" fill="#2E2E2E"/>
<path d="M175.074 22.3881C175.074 20.2125 174.154 19.439 172.097 19.439C170.257 19.439 168.805 19.8257 168.393 20.0916C168.199 20.2125 168.127 20.5026 168.127 20.7443C168.127 21.0344 168.175 21.4695 168.393 21.8804C169.095 21.5904 170.378 21.3245 171.612 21.3245C172.581 21.3245 173.113 21.6145 173.113 22.7749V24.6845C172.629 24.4428 171.879 24.3703 171.346 24.3703C169.7 24.3703 168.103 24.9746 168.103 28.3347C168.103 31.5981 169.724 32.009 171.443 32.009C173.089 32.009 174.251 31.5981 174.929 31.1871C175.05 29.35 175.074 26.4492 175.074 23.6693V22.3881ZM173.113 26.0624C173.113 27.3678 173.113 29.1566 173.041 29.9785C172.823 30.1718 172.29 30.3652 171.758 30.3652C170.789 30.3652 170.136 30.0751 170.136 28.2863C170.136 26.1591 170.983 25.8207 171.975 25.8207C172.314 25.8207 172.798 25.8932 173.113 26.0624Z" fill="#2E2E2E"/>
<path d="M184.362 24.3703C185.451 25.6273 185.79 26.425 185.79 27.5611C185.79 29.0357 185.137 30.0268 183.394 30.0268C182.232 30.0268 181.409 29.64 180.901 29.1807C180.562 29.6159 180.392 30.1718 180.392 30.5828C180.392 31.2355 181.385 32.009 183.587 32.009C186.855 32.009 187.896 29.9301 187.896 27.4644C187.896 25.9657 187.533 24.8779 186.274 23.3792L183.636 20.4059C182.934 19.5357 182.522 18.9072 182.522 18.0127C182.522 16.9491 183.442 16.3448 184.894 16.3448C186.008 16.3448 186.952 16.659 187.267 16.925C187.605 16.5624 187.751 16.1514 187.751 15.813C187.751 15.1361 186.879 14.6043 184.58 14.6043C181.893 14.6043 180.416 16.0305 180.416 18.0611C180.416 19.2214 180.828 20.2125 181.941 21.542L184.362 24.3703Z" fill="#2E2E2E"/>
<path d="M193.473 30.1235C191.996 30.1235 191.294 29.4466 191.198 26.8359C192.408 26.8359 194.683 26.7634 196.281 26.4492C196.474 25.5789 196.547 24.3945 196.547 23.3067C196.547 20.7201 195.506 19.439 193.473 19.439C191.343 19.439 189.189 20.3092 189.189 26.3525C189.189 31.0904 190.81 32.009 193.061 32.009C194.877 32.009 196.402 31.4288 196.402 30.6795C196.402 30.2927 196.353 29.7367 196.232 29.35C195.409 29.8334 194.441 30.1235 193.473 30.1235ZM193.255 21.1553C194.32 21.1553 194.635 21.7838 194.659 23.5484C194.659 24.0077 194.635 24.5637 194.538 24.9988C193.691 25.2405 192.142 25.2889 191.198 25.2647C191.367 21.9771 192.238 21.1553 193.255 21.1553Z" fill="#2E2E2E"/>
<path d="M198.298 31.7673C200.258 31.7673 200.283 31.7673 200.283 31.3805V21.8563C200.767 21.4695 201.348 21.3003 201.904 21.3003C202.316 21.3003 202.727 21.397 203.066 21.5904C203.236 21.1794 203.284 20.696 203.284 20.4542C203.284 19.8016 202.824 19.439 201.59 19.439C200.404 19.439 199.266 19.8499 198.298 20.5268V31.7673Z" fill="#2E2E2E"/>
<path d="M206.496 30.7278C206.666 31.4288 206.883 31.9123 207.343 31.9123C207.658 31.9123 208.36 31.9123 208.723 31.8398L211.507 19.6807C209.546 19.6807 209.522 19.6807 209.449 20.1158L208.796 23.5484C208.287 26.0866 207.876 29.6884 207.876 29.6884H207.827C207.827 29.6884 207.392 26.0866 206.859 23.5726L206.085 19.6807C204.342 19.6807 203.979 19.6807 203.979 20.0191C203.979 20.0916 204.003 20.1642 204.027 20.285L206.496 30.7278Z" fill="#2E2E2E"/>
<path d="M212.953 16.5382C212.953 17.626 213.34 17.9886 213.945 17.9886C214.696 17.9886 215.059 17.4084 215.059 16.3931C215.059 15.4262 214.817 15.0394 214.066 15.0394C213.316 15.0394 212.953 15.6438 212.953 16.5382ZM214.986 19.6807C213.413 19.6807 213.026 19.6807 213.026 20.5751V31.7673C214.986 31.7673 214.986 31.7673 214.986 31.3805V19.6807Z" fill="#2E2E2E"/>
<path d="M223.236 20.5268C223.236 19.8982 222.34 19.439 221.202 19.439C219.217 19.439 216.869 20.1883 216.869 25.9899C216.869 31.0904 218.152 32.009 220.476 32.009C222.074 32.009 223.187 31.4288 223.187 30.7762C223.187 30.4619 223.115 30.1477 222.994 29.7126C222.582 30.0026 221.856 30.2685 221.057 30.2685C219.581 30.2685 218.879 29.4225 218.879 26.0141C218.879 21.6871 220.186 21.1553 221.299 21.1553C221.977 21.1553 222.63 21.397 223.018 21.6145C223.187 21.2036 223.236 20.7927 223.236 20.5268Z" fill="#2E2E2E"/>
<path d="M228.41 30.1235C226.934 30.1235 226.232 29.4466 226.135 26.8359C227.345 26.8359 229.621 26.7634 231.218 26.4492C231.412 25.5789 231.484 24.3945 231.484 23.3067C231.484 20.7201 230.444 19.439 228.41 19.439C226.28 19.439 224.126 20.3092 224.126 26.3525C224.126 31.0904 225.748 32.009 227.999 32.009C229.814 32.009 231.339 31.4288 231.339 30.6795C231.339 30.2927 231.291 29.7367 231.17 29.35C230.347 29.8334 229.378 30.1235 228.41 30.1235ZM228.192 21.1553C229.257 21.1553 229.572 21.7838 229.596 23.5484C229.596 24.0077 229.572 24.5637 229.475 24.9988C228.628 25.2405 227.079 25.2889 226.135 25.2647C226.304 21.9771 227.176 21.1553 228.192 21.1553Z" fill="#2E2E2E"/>
<path d="M236.648 26.8601C237.398 27.5128 237.616 28.093 237.616 28.7698C237.616 29.7367 236.89 30.2444 235.631 30.2444C234.687 30.2444 233.937 30.0751 233.235 29.6642C232.969 30.0751 232.872 30.4861 232.872 30.8003C232.872 31.5981 234.107 32.009 235.825 32.009C238.294 32.009 239.843 30.8003 239.843 28.6489C239.843 27.4403 239.456 26.6426 238.391 25.6273L236.14 23.8143C235.317 23.1375 235.172 22.7507 235.172 22.3156C235.172 21.5662 235.922 21.1311 237.084 21.1311C238.004 21.1311 238.73 21.3245 239.48 21.7838C239.722 21.4937 239.892 21.0827 239.892 20.7927C239.892 20.3092 239.335 19.439 236.866 19.439C234.155 19.439 232.896 20.5993 232.896 22.2914C232.896 23.0891 233.187 23.9593 234.3 24.8537L236.648 26.8601Z" fill="#2E2E2E"/>
<path d="M11.2576 0.79126C11.2576 0.79126 9.77578 1.42648 9.03587 4.06641C8.29597 6.70441 0 31.5808 0 31.5808L9.82681 31.7265C9.82681 31.7265 12.7904 31.1884 13.7285 28.4028C14.6666 25.6172 16.641 19.704 16.641 19.704L11.2576 0.79126Z" fill="#B30023"/>
<path d="M42.7122 0L40.7611 0.0651566C40.7611 0.0651566 38.6156 0.458071 36.9881 3.14529C36.0116 6.03192 31.264 20.4533 31.264 20.4533L36.7916 39.8561L39.3281 39.5935C39.3281 39.5935 40.4337 39.0703 41.0192 37.7593C41.6047 36.4482 47.3287 20.0603 47.3287 20.0603L42.7122 0Z" fill="#B30023"/>
<path fill-rule="evenodd" clip-rule="evenodd" d="M12.1742 0.103839C11.6367 0.234664 11.1213 0.544515 10.5466 1.08214C9.99212 1.60078 9.84354 1.87321 10.2271 1.66786C10.4056 1.57235 10.4745 1.59701 10.6049 1.8028C10.6925 1.94129 11.1698 3.3656 11.6653 4.96794C14.3716 13.7194 21.543 35.8561 21.8745 36.4822C22.2836 37.2547 23.6981 38.6621 24.4425 39.0372C26.0499 39.8472 25.6427 39.8048 32.1943 39.8445C38.4779 39.8828 38.93 39.8527 39.8124 39.3372C40.2538 39.0794 40.3431 38.8264 39.9383 38.9803C39.1865 39.2662 38.3857 39.0206 38.0674 38.4067C37.962 38.2035 35.4744 30.5658 32.5395 21.4341C28.4977 8.85873 27.099 4.64243 26.7741 4.0536C25.8624 2.40184 24.6324 1.20753 23.0487 0.436456L22.1522 0L17.3298 0.0113276C14.6774 0.0176579 12.3574 0.0591934 12.1742 0.103839Z" fill="#FF4545"/>
<path fill-rule="evenodd" clip-rule="evenodd" d="M70.6315 0.0948274C70.0322 0.160939 69.0939 0.610739 68.5462 1.09452C67.6736 1.86538 66.8876 3.1805 66.3588 4.7548C66.0103 5.79219 55.0383 39.9171 55.0383 39.9635C55.0383 40.0316 66.0542 39.996 66.7784 39.9255C68.2631 39.781 69.2855 39.2746 70.4325 38.1154C71.516 37.0203 71.649 36.7498 72.7843 33.3306C77.148 20.1882 81.5071 6.83677 82.0816 4.85371L82.2691 4.20691L82.0694 3.7945C81.8387 3.31784 80.0959 1.52273 78.9393 0.570374L78.2466 0L74.6734 0.0215922C72.7081 0.0333899 70.8893 0.0664088 70.6315 0.0948274Z" fill="#B30023"/>
<path fill-rule="evenodd" clip-rule="evenodd" d="M40.441 0.0932221C39.1187 0.3831 37.9015 1.33316 37.2196 2.60778C36.9441 3.12288 36.9693 3.23039 37.2656 2.80368C37.549 2.3955 38.2166 1.79492 38.4526 1.73576C38.7184 1.66917 39.0451 1.85667 39.1884 2.15838C39.254 2.29617 39.5459 3.17652 39.837 4.11476C41.0023 7.86918 43.2943 15.0312 47.3004 27.4349C49.9121 35.522 50.0276 35.8391 50.8107 37.0772C51.4879 38.1481 52.5043 39.1347 53.3671 39.5586C54.3025 40.0182 54.2888 40.0175 60.9206 39.9903C66.8298 39.9662 66.941 39.963 67.5454 39.8027C67.8834 39.713 68.3843 39.5267 68.6583 39.3888L69.1567 39.138L68.4505 39.1011C67.6247 39.058 67.1509 38.8664 66.7999 38.4335C66.6248 38.2177 66.0492 36.5479 63.9021 30.0279C62.4284 25.5531 59.997 18.0916 58.4989 13.4469C55.964 5.58773 55.7415 4.93774 55.292 4.07436C54.6774 2.89386 54.1251 2.12981 53.3646 1.40816C52.71 0.787039 52.1858 0.443516 51.4956 0.183549C51.0549 0.0176278 51.0353 0.0169582 45.9845 0.00311904C41.8782 -0.00819036 40.8256 0.00892244 40.441 0.0932221Z" fill="#FF4545"/>
<path fill-rule="evenodd" clip-rule="evenodd" d="M69.938 0.213726C68.9399 0.467626 67.6432 1.94245 67.5712 2.23022C67.7873 2.05809 67.8953 2.01439 67.8953 2.01439C68.2555 1.90647 68.5551 1.98119 68.7965 2.46479C68.9226 2.71762 71.0103 8.82094 73.436 16.0282C76.9036 26.3315 77.9574 29.2774 78.3667 29.8129C78.6865 30.2317 79.2932 30.7039 79.9406 31.0385L80.994 31.5827H86.097H91.1999L91.0848 31.2067C91.0213 30.9999 88.9383 24.5142 86.4558 16.794C81.4241 1.1465 81.6046 1.58382 79.7374 0.517522L78.8313 0L74.6661 0.0170442C72.2067 0.0270705 70.6328 -0.0359712 69.938 0.213726Z" fill="#FF4545"/>
</svg>
