<svg width="69" height="30" viewBox="0 0 69 30" fill="none" xmlns="http://www.w3.org/2000/svg">
<path d="M8.44315 0.593506C8.44315 0.593506 7.33183 1.06992 6.7769 3.04987C6.22197 5.02836 0 23.6856 0 23.6856L7.3701 23.7949C7.3701 23.7949 9.59275 23.3913 10.2964 21.3021C10.9999 19.2129 12.4807 14.7781 12.4807 14.7781L8.44315 0.593506Z" fill="#B30023"/>
<path d="M32.0341 0L30.5708 0.0488674C30.5708 0.0488674 28.9617 0.343553 27.741 2.35896C27.0087 4.52394 23.448 15.3399 23.448 15.3399L27.5937 29.8921L29.4961 29.6951C29.4961 29.6951 30.3252 29.3027 30.7643 28.3194C31.2035 27.3361 35.4965 15.0452 35.4965 15.0452L32.0341 0Z" fill="#B30023"/>
<path fill-rule="evenodd" clip-rule="evenodd" d="M9.13065 0.0778788C8.72755 0.175998 8.34094 0.408386 7.90994 0.811608C7.49409 1.20059 7.38266 1.4049 7.67032 1.25089C7.80416 1.17926 7.85588 1.19775 7.95366 1.3521C8.01937 1.45596 8.37733 2.5242 8.74895 3.72595C10.7787 10.2895 16.1573 26.8921 16.4059 27.3616C16.7127 27.941 17.7736 28.9966 18.3318 29.2778C19.5374 29.8854 19.232 29.8536 24.1457 29.8834C28.8584 29.912 29.1975 29.8895 29.8593 29.5029C30.1903 29.3095 30.2573 29.1198 29.9537 29.2352C29.3899 29.4496 28.7892 29.2654 28.5505 28.805C28.4715 28.6526 26.6058 22.9243 24.4046 16.0756C21.3732 6.64404 20.3243 3.48182 20.0806 3.0402C19.3968 1.80138 18.4743 0.905645 17.2865 0.327342L16.6142 0L12.9973 0.00849567C11.0081 0.0132434 9.26807 0.044395 9.13065 0.0778788Z" fill="#FF4545"/>
<path fill-rule="evenodd" clip-rule="evenodd" d="M52.9736 0.0711204C52.5241 0.120704 51.8204 0.458054 51.4096 0.82089C50.7551 1.39904 50.1656 2.38537 49.769 3.5661C49.5077 4.34414 41.2787 29.9378 41.2787 29.9726C41.2787 30.0237 49.5406 29.997 50.0837 29.9441C51.1973 29.8358 51.9641 29.4559 52.8243 28.5865C53.6369 27.7652 53.7367 27.5623 54.5881 24.9979C57.8609 15.1411 61.1302 5.12757 61.5611 3.64028L61.7017 3.15518L61.552 2.84588C61.3789 2.48838 60.0719 1.14205 59.2044 0.42778L58.6848 0L56.005 0.0161941C54.531 0.0250424 53.1669 0.0498066 52.9736 0.0711204Z" fill="#B30023"/>
<path fill-rule="evenodd" clip-rule="evenodd" d="M30.3307 0.0699165C29.339 0.287325 28.4262 0.999872 27.9147 1.95583C27.708 2.34216 27.727 2.42279 27.9492 2.10276C28.1617 1.79663 28.6624 1.34619 28.8394 1.30182C29.0388 1.25188 29.2838 1.3925 29.3913 1.61878C29.4405 1.72213 29.6594 2.38239 29.8778 3.08606C30.7517 5.90188 32.4707 11.2734 35.4753 20.5762C37.4341 26.6415 37.5207 26.8793 38.108 27.8079C38.6159 28.611 39.3782 29.351 40.0253 29.6689C40.7269 30.0137 40.7166 30.0131 45.6904 29.9927C50.1224 29.9746 50.2058 29.9722 50.659 29.852C50.9125 29.7847 51.2882 29.645 51.4937 29.5416L51.8675 29.3535L51.3379 29.3258C50.7185 29.2935 50.3631 29.1498 50.0999 28.8251C49.9686 28.6632 49.5369 27.4109 47.9266 22.5209C46.8213 19.1648 44.9978 13.5687 43.8742 10.0852C41.973 4.1908 41.8061 3.7033 41.469 3.05576C41.0081 2.17039 40.5938 1.59735 40.0235 1.05612C39.5325 0.590279 39.1394 0.332637 38.6217 0.137661C38.2912 0.0132208 38.2764 0.0127186 34.4884 0.00233928C31.4086 -0.00614277 30.6192 0.00669182 30.3307 0.0699165Z" fill="#FF4545"/>
<path fill-rule="evenodd" clip-rule="evenodd" d="M52.4534 0.160295C51.7048 0.350719 50.7323 1.45683 50.6783 1.67266C50.8404 1.54356 50.9214 1.51079 50.9214 1.51079C51.1916 1.42985 51.4162 1.48589 51.5973 1.84859C51.6918 2.03821 53.2576 6.6157 55.0769 12.0211C57.6776 19.7486 58.4679 21.958 58.7749 22.3597C59.0148 22.6737 59.4698 23.0279 59.9554 23.2788L60.7454 23.687H64.5726H68.3999L68.3135 23.405C68.2659 23.2499 66.7036 18.3856 64.8417 12.5955C61.068 0.859877 61.2034 1.18786 59.8029 0.388141L59.1234 0L55.9995 0.0127831C54.1549 0.0203028 52.9745 -0.0269784 52.4534 0.160295Z" fill="#FF4545"/>
</svg>
