<svg width="86" height="85" viewBox="0 0 86 85" fill="none" xmlns="http://www.w3.org/2000/svg">
<rect x="0.75" width="85" height="85" rx="42.5" fill="white"/>
<path d="M54.7513 57.6393L54.7512 57.639L54.7646 57.6346C55.0955 57.5254 55.56 57.5117 55.9381 57.7527L66.7659 63.331L62.5409 53.5006C62.2945 52.9945 62.4396 52.4138 62.7567 51.9907L62.7626 51.9828L62.769 51.9752C65.5537 48.6683 67.1226 44.3127 67.1226 39.9579C67.1226 28.0241 56.236 19.0523 44.4758 21.403C35.6773 23.2337 29.3188 30.9874 29.3188 39.9579C29.3188 50.496 37.9423 58.8595 48.221 58.8595C50.3935 58.8595 52.6592 58.4246 54.7513 57.6393ZM23.3826 48.3388L23.3884 48.3459L23.3939 48.3532C23.7107 48.7764 23.8566 49.3572 23.6091 49.863L19.8281 58.7133L29.5017 53.673C29.8769 53.4323 30.3383 53.4438 30.6691 53.552C30.8806 53.6123 31.0817 53.6726 31.2784 53.7327C22.199 42.7238 26.1085 26.0393 39.0963 20.1353C28.7611 18.6797 19.3826 26.8157 19.3826 37.2961C19.3826 41.2961 20.774 45.2089 23.3826 48.3388ZM70.9881 65.9907L70.9882 65.9906L70.9917 65.9991C71.1021 66.2746 71.143 66.5843 71.0434 66.8834C70.9469 67.173 70.7344 67.4058 70.4294 67.5703C69.9466 68.018 69.3556 67.9871 68.8506 67.7847L68.8343 67.7782L68.8188 67.7701L55.0242 60.5656C48.6783 62.7464 41.1256 61.8438 35.144 57.4247C33.4256 57.3275 31.7915 56.9876 30.2422 56.4829L17.5095 63.1571L17.5095 63.1572L17.5031 63.1604C17.0521 63.3853 16.3593 63.4014 15.8747 62.934C15.3775 62.5436 15.2978 61.8378 15.5136 61.2972L15.5134 61.2971L15.5171 61.2887L20.5825 49.5003C17.9528 46.011 16.4645 41.7418 16.4645 37.2961C16.4645 26.1915 25.4919 17.0733 36.6873 17.0733C39.3629 17.0733 41.8612 17.6019 44.2666 18.5693C57.7494 16.2043 69.952 26.5538 69.952 40.0468C69.952 44.7566 68.3758 49.4664 65.4807 53.2279L70.9881 65.9907Z" fill="#FF4545" stroke="#FF4545" stroke-width="0.7"/>
<path d="M41.4798 37.7399C42.7049 37.7399 43.6976 38.7325 43.6976 39.9583C43.6976 41.1832 42.7049 42.1758 41.4798 42.1758C40.2547 42.1758 39.2617 41.1832 39.2617 39.9583C39.2617 38.7325 40.2547 37.7399 41.4798 37.7399Z" fill="#FF4545"/>
<path d="M48.1315 37.7399C49.3564 37.7399 50.3499 38.7325 50.3499 39.9583C50.3499 41.1832 49.3564 42.1758 48.1315 42.1758C46.9067 42.1758 45.9141 41.1832 45.9141 39.9583C45.9141 38.7325 46.9067 37.7399 48.1315 37.7399Z" fill="#FF4545"/>
<path d="M54.7848 37.7399C56.0096 37.7399 57.0022 38.7325 57.0022 39.9583C57.0022 41.1832 56.0096 42.1758 54.7848 42.1758C53.5599 42.1758 52.5664 41.1832 52.5664 39.9583C52.5664 38.7325 53.5599 37.7399 54.7848 37.7399Z" fill="#FF4545"/>
</svg>
