<svg width="86" height="85" viewBox="0 0 86 85" fill="none" xmlns="http://www.w3.org/2000/svg">
<rect x="0.75" width="85" height="85" rx="42.5" fill="white"/>
<path d="M41.4727 61.9612V66.3345H45.0219V61.9612H41.4727Z" fill="#FF4545"/>
<path d="M66.5664 16.7579H19.933C17.6209 16.7579 15.75 18.6283 15.75 20.9409V57.7809C15.75 60.0846 17.6209 61.96 19.933 61.96H66.5664C68.8752 61.96 70.75 60.0846 70.75 57.7809V20.9409C70.75 18.6283 68.8752 16.7579 66.5664 16.7579Z" fill="#FF4545"/>
<path d="M67.1864 58.4819V20.2533H19.3164V58.4819H67.1864Z" fill="white"/>
<path d="M36.9193 42.3008H23.9336V25.2673H36.9193V42.3008Z" fill="#FF4545"/>
<path d="M63.1902 31.3179H40.9414V25.2673H63.1902V31.3179Z" fill="#FF4545"/>
<path d="M63.1902 42.3008H40.9414V36.2502H63.1902V42.3008Z" fill="#FF4545"/>
<path d="M52.1621 66.3337H34.3388C33.645 66.3337 33.082 66.7597 33.082 67.2857V68.2383L53.4184 68.2422C53.4184 68.2422 53.4184 67.815 53.4184 67.2879C53.4184 66.7608 52.8565 66.3337 52.1621 66.3337Z" fill="#FF4545"/>
</svg>
