<svg width="69" height="164" viewBox="0 0 69 164" fill="none" xmlns="http://www.w3.org/2000/svg">
<g filter="url(#filter0_dd_360_15328)">
<path fill-rule="evenodd" clip-rule="evenodd" d="M22.3727 133.273C23.6791 133.275 24.7365 134.336 24.7344 135.642C24.7324 136.948 23.6717 138.006 22.3654 138.004C21.059 138.002 20.0016 136.941 20.0037 135.635C20.0057 134.328 21.0664 133.271 22.3727 133.273ZM22.4094 109.619C23.7158 109.621 24.7731 110.682 24.7711 111.988C24.7691 113.295 23.7084 114.352 22.4021 114.35C21.0957 114.348 20.0383 113.287 20.0403 111.981C20.0424 110.674 21.103 109.617 22.4094 109.619ZM24.8078 88.3343C24.8098 87.028 23.7524 85.9673 22.4461 85.9653C21.1397 85.9632 20.079 87.0206 20.077 88.327C20.075 89.6333 21.1324 90.694 22.4387 90.696C23.7451 90.6981 24.8058 89.6407 24.8078 88.3343ZM22.4827 62.3115C23.7891 62.3135 24.8465 63.3741 24.8445 64.6805C24.8424 65.9869 23.7818 67.0442 22.4754 67.0422C21.169 67.0402 20.1117 65.9795 20.1137 64.6732C20.1157 63.3668 21.1764 62.3094 22.4827 62.3115ZM24.8811 41.0267C24.8832 39.7203 23.8258 38.6597 22.5194 38.6576C21.213 38.6556 20.1524 39.713 20.1504 41.0193C20.1483 42.3257 21.2057 43.3864 22.5121 43.3884C23.8184 43.3904 24.8791 42.333 24.8811 41.0267ZM22.5561 15.0038C23.8624 15.0058 24.9198 16.0665 24.9178 17.3729C24.9158 18.6792 23.8551 19.7366 22.5487 19.7346C21.2424 19.7326 20.185 18.6719 20.187 17.3655C20.1891 16.0592 21.2497 15.0018 22.5561 15.0038ZM48.3882 135.679C48.3903 134.372 47.3329 133.312 46.0265 133.31C44.7202 133.308 43.6595 134.365 43.6575 135.671C43.6555 136.978 44.7128 138.038 46.0192 138.04C47.3256 138.042 48.3862 136.985 48.3882 135.679ZM46.0632 109.656C47.3696 109.658 48.4269 110.718 48.4249 112.025C48.4229 113.331 47.3622 114.389 46.0559 114.387C44.7495 114.384 43.6921 113.324 43.6942 112.017C43.6962 110.711 44.7568 109.654 46.0632 109.656ZM48.4616 88.371C48.4636 87.0646 47.4062 86.004 46.0999 86.0019C44.7935 85.9999 43.7329 87.0573 43.7308 88.3637C43.7288 89.67 44.7862 90.7307 46.0925 90.7327C47.3989 90.7347 48.4596 89.6774 48.4616 88.371ZM46.1366 62.3481C47.4429 62.3501 48.5003 63.4108 48.4983 64.7172C48.4962 66.0235 47.4356 67.0809 46.1292 67.0789C44.8229 67.0769 43.7655 66.0162 43.7675 64.7098C43.7695 63.4035 44.8302 62.3461 46.1366 62.3481ZM48.5349 41.0634C48.537 39.757 47.4796 38.6963 46.1732 38.6943C44.8669 38.6923 43.8062 39.7497 43.8042 41.056C43.8022 42.3624 44.8595 43.423 46.1659 43.4251C47.4723 43.4271 48.5329 42.3697 48.5349 41.0634ZM46.2099 15.0405C47.5163 15.0425 48.5736 16.1032 48.5716 17.4095C48.5696 18.7159 47.5089 19.7733 46.2026 19.7713C44.8962 19.7692 43.8388 18.7086 43.8409 17.4022C43.8429 16.0958 44.9035 15.0385 46.2099 15.0405Z" fill="#FF4545"/>
</g>
<defs>
<filter id="filter0_dd_360_15328" x="0.13443" y="0.811597" width="68.3065" height="162.775" filterUnits="userSpaceOnUse" color-interpolation-filters="sRGB">
<feFlood flood-opacity="0" result="BackgroundImageFix"/>
<feColorMatrix in="SourceAlpha" type="matrix" values="0 0 0 0 0 0 0 0 0 0 0 0 0 0 0 0 0 0 127 0" result="hardAlpha"/>
<feOffset dy="5.67692"/>
<feGaussianBlur stdDeviation="9.93462"/>
<feColorMatrix type="matrix" values="0 0 0 0 1 0 0 0 0 0.403922 0 0 0 0 0 0 0 0 0.22 0"/>
<feBlend mode="normal" in2="BackgroundImageFix" result="effect1_dropShadow_360_15328"/>
<feColorMatrix in="SourceAlpha" type="matrix" values="0 0 0 0 0 0 0 0 0 0 0 0 0 0 0 0 0 0 127 0" result="hardAlpha"/>
<feOffset dy="3.78462"/>
<feGaussianBlur stdDeviation="4.25769"/>
<feColorMatrix type="matrix" values="0 0 0 0 1 0 0 0 0 0.403922 0 0 0 0 0 0 0 0 0.32 0"/>
<feBlend mode="normal" in2="effect1_dropShadow_360_15328" result="effect2_dropShadow_360_15328"/>
<feBlend mode="normal" in="SourceGraphic" in2="effect2_dropShadow_360_15328" result="shape"/>
</filter>
</defs>
</svg>
