<svg width="86" height="85" viewBox="0 0 86 85" fill="none" xmlns="http://www.w3.org/2000/svg">
<rect x="0.25" width="85" height="85" rx="42.5" fill="white"/>
<path d="M67.1535 37.3904C66.9264 37.3904 66.7065 37.4182 66.4927 37.4644V35.0688C66.4927 33.2086 64.984 31.701 63.1259 31.701C62.8012 31.701 62.4877 31.7493 62.1928 31.8356C60.941 27.918 56.6555 19.3901 43.0362 19.3901H42.9643C27.8097 19.424 24.0472 29.9827 23.2888 32.961C22.9979 32.8798 22.6916 32.8325 22.3751 32.8325C20.516 32.8325 19.0073 34.3412 19.0073 36.2013V38.5969C18.7935 38.5507 18.5736 38.524 18.3465 38.524C16.6364 38.524 15.25 39.9093 15.25 41.6194V46.6542C15.25 48.3643 16.6364 49.7507 18.3465 49.7507C18.5736 49.7507 18.7935 49.7219 19.0073 49.6767V53.3313C19.0073 55.1914 20.516 56.699 22.3751 56.699C24.2353 56.699 25.7429 55.1914 25.7429 53.3313V36.2013C25.7429 35.3627 25.4264 34.778 25.4264 34.778C25.5025 34.2775 27.5507 21.8412 42.9674 21.8062H43.0362C56.6555 21.8062 59.6101 30.9898 60.16 33.4697C59.903 33.9455 59.7571 34.4902 59.7571 35.0688V52.1987C59.7571 53.1411 60.1435 53.991 60.7663 54.6015C59.0315 56.437 53.3904 63.668 46.7144 61.0792C42.5676 59.4718 38.6623 62.0935 38.6623 63.3453C38.6623 64.596 42.2675 65.6104 46.7144 65.6104C55.4798 65.6104 60.2679 57.5058 61.163 54.9334C61.7159 55.3301 62.3921 55.5665 63.1259 55.5665C64.984 55.5665 66.4927 54.0589 66.4927 52.1987V48.5442C66.7065 48.5904 66.9264 48.6182 67.1535 48.6182C68.8636 48.6182 70.25 47.2318 70.25 45.5217V40.4869C70.25 38.7768 68.8636 37.3904 67.1535 37.3904Z" fill="#FF4545"/>
</svg>
